<?xml version="1.0" encoding="UTF-8" standalone="no"?>
<svg
   xmlns:dc="http://purl.org/dc/elements/1.1/"
   xmlns:cc="http://creativecommons.org/ns#"
   xmlns:rdf="http://www.w3.org/1999/02/22-rdf-syntax-ns#"
   xmlns:svg="http://www.w3.org/2000/svg"
   xmlns="http://www.w3.org/2000/svg"
   xmlns:sodipodi="http://sodipodi.sourceforge.net/DTD/sodipodi-0.dtd"
   xmlns:inkscape="http://www.inkscape.org/namespaces/inkscape"
   width="64"
   height="64"
   viewBox="0 0 64 64"
   class="feather feather-settings"
   version="1.1"
   id="svg6"
   sodipodi:docname="settings.svg"
   style="fill:none;stroke:currentColor;stroke-width:1;stroke-linecap:round;stroke-linejoin:round"
   inkscape:version="0.92.1 r15371">
  <metadata
     id="metadata12">
    <rdf:RDF>
      <cc:Work
         rdf:about="">
        <dc:format>image/svg+xml</dc:format>
        <dc:type
           rdf:resource="http://purl.org/dc/dcmitype/StillImage" />
        <dc:title></dc:title>
      </cc:Work>
    </rdf:RDF>
  </metadata>
  <defs
     id="defs10" />
  <sodipodi:namedview
     pagecolor="#ffffff"
     bordercolor="#666666"
     borderopacity="1"
     objecttolerance="10"
     gridtolerance="10"
     guidetolerance="10"
     inkscape:pageopacity="0"
     inkscape:pageshadow="2"
     inkscape:window-width="1920"
     inkscape:window-height="1020"
     id="namedview8"
     showgrid="false"
     inkscape:zoom="3.6875"
     inkscape:cx="32"
     inkscape:cy="32"
     inkscape:window-x="-8"
     inkscape:window-y="-8"
     inkscape:window-maximized="1"
     inkscape:current-layer="svg6" />
  <path
     style="fill:none;fill-opacity:1;stroke:#000000;stroke-width:2.43478274;stroke-opacity:1"
     d="M 39.304348,32.000001 A 7.3043478,7.304348 0 0 1 32,39.30435 7.3043478,7.304348 0 0 1 24.695652,32.000001 7.3043478,7.304348 0 0 1 32,24.695653 a 7.3043478,7.304348 0 0 1 7.304348,7.304348 z"
     id="circle2"
     inkscape:connector-curvature="0" />
  <path
     d="m 50.017392,39.30435 a 4.0173913,4.0173915 0 0 0 0.803478,4.431303 l 0.146087,0.146084 a 4.8695652,4.8695653 0 0 1 0,6.890436 4.8695652,4.8695653 0 0 1 -6.890435,0 l -0.146087,-0.146084 a 4.0173913,4.0173915 0 0 0 -4.431304,-0.803478 4.0173913,4.0173915 0 0 0 -2.434783,3.676521 v 0.413914 a 4.8695652,4.8695653 0 0 1 -4.869566,4.869563 4.8695652,4.8695653 0 0 1 -4.869565,-4.869563 v -0.219139 a 4.0173913,4.0173915 0 0 0 -2.629565,-3.676521 4.0173913,4.0173915 0 0 0 -4.431304,0.803478 l -0.146087,0.146084 a 4.8695652,4.8695653 0 0 1 -6.890435,0 4.8695652,4.8695653 0 0 1 0,-6.890436 l 0.146087,-0.146084 A 4.0173913,4.0173915 0 0 0 14.177391,39.499132 4.0173913,4.0173915 0 0 0 10.50087,37.064349 H 10.086957 A 4.8695652,4.8695653 0 0 1 5.2173914,32.194783 4.8695652,4.8695653 0 0 1 10.086957,27.325217 h 0.21913 a 4.0173913,4.0173915 0 0 0 3.676521,-2.629564 4.0173913,4.0173915 0 0 0 -0.803478,-4.431304 l -0.146087,-0.146087 a 4.8695652,4.8695653 0 0 1 0,-6.890435 4.8695652,4.8695653 0 0 1 6.890435,0 l 0.146087,0.146086 a 4.0173913,4.0173915 0 0 0 4.431304,0.803479 h 0.194783 A 4.0173913,4.0173915 0 0 0 27.130435,10.50087 V 10.086957 A 4.8695652,4.8695653 0 0 1 32,5.2173916 4.8695652,4.8695653 0 0 1 36.869565,10.086957 v 0.219131 a 4.0173913,4.0173915 0 0 0 2.434783,3.676522 4.0173913,4.0173915 0 0 0 4.431304,-0.803478 l 0.146087,-0.146087 a 4.8695652,4.8695653 0 0 1 6.890435,0 4.8695652,4.8695653 0 0 1 0,6.890435 l -0.146087,0.146087 a 4.0173913,4.0173915 0 0 0 -0.803478,4.431305 v 0.194782 a 4.0173913,4.0173915 0 0 0 3.676522,2.434781 h 0.413913 a 4.8695652,4.8695653 0 0 1 4.869564,4.869566 4.8695652,4.8695653 0 0 1 -4.869564,4.869566 h -0.219131 a 4.0173913,4.0173915 0 0 0 -3.676521,2.434783 z"
     id="path4"
     style="fill:none;fill-opacity:1;stroke:#000000;stroke-width:2.43478274;stroke-opacity:1"
     inkscape:connector-curvature="0" />
</svg>
